<?xml version="1.0" encoding="iso-8859-1"?>
<!-- Generator: Adobe Illustrator 19.0.0, SVG Export Plug-In . SVG Version: 6.00 Build 0)  -->
<svg version="1.1" id="Capa_1" xmlns="http://www.w3.org/2000/svg" xmlns:xlink="http://www.w3.org/1999/xlink" x="0px" y="0px"
	 viewBox="0 0 464 464" style="enable-background:new 0 0 464 464;" xml:space="preserve">
<path style="fill:#EAEAE8;" d="M32,56h400c17.673,0,32,14.327,32,32v144c0,17.673-14.327,32-32,32H32c-17.673,0-32-14.327-32-32V88
	C0,70.327,14.327,56,32,56z"/>
<path style="fill:#6FBBC6;" d="M56,216h352v80H56V216z"/>
<g>
	<path style="fill:#8ACED8;" d="M56,264h352v32H56V264z"/>
	<path style="fill:#8ACED8;" d="M0,136h464v32H0V136z"/>
</g>
<path style="fill:#F7BA61;" d="M392,96h16v16h-16V96z"/>
<path style="fill:#79A73A;" d="M424,96h16v16h-16V96z"/>
<g>
	<path style="fill:#B3E4E8;" d="M224,320h16v88h-16V320z"/>
	<path style="fill:#B3E4E8;" d="M62.856,404.12l-13.712-8.24l3.48-5.792C65.299,368.947,71.996,344.761,72,320.112L88,320
		c0.015,27.588-7.474,54.661-21.664,78.32L62.856,404.12z"/>
	<path style="fill:#B3E4E8;" d="M401.144,404.12l-3.48-5.8C383.488,374.696,376,347.663,376,320.112L392,320v0.112
		c0.004,24.649,6.701,48.835,19.376,69.976l3.48,5.792L401.144,404.12z"/>
</g>
<g>
</g>
<g>
</g>
<g>
</g>
<g>
</g>
<g>
</g>
<g>
</g>
<g>
</g>
<g>
</g>
<g>
</g>
<g>
</g>
<g>
</g>
<g>
</g>
<g>
</g>
<g>
</g>
<g>
</g>
</svg>
