<?xml version="1.0"?>
<svg xmlns="http://www.w3.org/2000/svg" xmlns:xlink="http://www.w3.org/1999/xlink" version="1.1" id="Capa_1" x="0px" y="0px" viewBox="0 0 512 512" style="enable-background:new 0 0 512 512;" xml:space="preserve" width="512px" height="512px" class=""><g><g>
	<g>
		<g>
			<path d="M369.778,378.186h-52.693v52.693h52.693V378.186z M354.778,415.879h-22.693v-22.693h22.693V415.879z" data-original="#000000" class="active-path" data-old_color="#000000" fill="#009688"/>
			<path d="M305.748,430.879v-52.693h-52.693v52.693H305.748z M268.055,393.186h22.693v22.693h-22.693V393.186z" data-original="#000000" class="active-path" data-old_color="#000000" fill="#009688"/>
			<rect x="76.08" y="102.22" width="15" height="15" data-original="#000000" class="active-path" data-old_color="#000000" fill="#009688"/>
			<rect x="76.08" y="152.22" width="15" height="152.38" data-original="#000000" class="active-path" data-old_color="#000000" fill="#009688"/>
			<rect x="76.08" y="127.22" width="15" height="15" data-original="#000000" class="active-path" data-old_color="#000000" fill="#009688"/>
			<rect x="464.5" y="195.22" width="15" height="213.91" data-original="#000000" class="active-path" data-old_color="#000000" fill="#009688"/>
			<rect x="464.5" y="145.22" width="15" height="15" data-original="#000000" class="active-path" data-old_color="#000000" fill="#009688"/>
			<rect x="464.5" y="170.22" width="15" height="15" data-original="#000000" class="active-path" data-old_color="#000000" fill="#009688"/>
			<path d="M15,117.582c0-12.69,4.95-24.63,13.92-33.61c8.99-8.98,20.93-13.92,33.62-13.93c1.3,0,2.61,0.06,3.89,0.16l0.05,0.01     l1.21-14.96h-0.05c-1.67-0.14-3.39-0.21-5.1-0.21c-8.45,0.01-16.64,1.66-24.35,4.92c-7.44,3.15-14.13,7.66-19.87,13.4     c-5.75,5.74-10.25,12.43-13.4,19.88c-3.26,7.71-4.92,15.9-4.92,24.34v163.51l15,0.05V117.582z" data-original="#000000" class="active-path" data-old_color="#000000" fill="#009688"/>
			<path d="M84.75,394.421c0-12.249-9.965-22.213-22.213-22.213c-12.248,0-22.213,9.965-22.213,22.213     c0,12.248,9.965,22.213,22.213,22.213C74.785,416.634,84.75,406.67,84.75,394.421z M55.323,394.421     c0-3.978,3.236-7.213,7.213-7.213s7.213,3.236,7.213,7.213c0,3.977-3.236,7.213-7.213,7.213S55.323,398.399,55.323,394.421z" data-original="#000000" class="active-path" data-old_color="#000000" fill="#009688"/>
			<path d="M62.537,352.458c-1.682,0-3.377,0.101-5.039,0.3l1.787,14.894c1.07-0.129,2.165-0.194,3.252-0.194     c14.868,0,26.963,12.096,26.963,26.963s-12.096,26.963-26.963,26.963v15c23.139,0,41.963-18.825,41.963-41.963     S85.675,352.458,62.537,352.458z" data-original="#000000" class="active-path" data-old_color="#000000" fill="#009688"/>
			<path d="M20.573,394.421h15v0c0-3.974,0.842-7.797,2.503-11.365l-13.599-6.331C21.886,382.29,20.573,388.244,20.573,394.421z" data-original="#000000" class="active-path" data-old_color="#000000" fill="#009688"/>
			<path d="M51.775,369.689l-5.995-13.75c-5.55,2.42-10.614,6.102-14.646,10.646l11.222,9.954     C44.952,373.613,48.208,371.244,51.775,369.689z" data-original="#000000" class="active-path" data-old_color="#000000" fill="#009688"/>
			<polygon points="242.35,110.082 242.3,125.082 497,125.082 497,405.432 512,405.482 512,110.082    " data-original="#000000" class="active-path" data-old_color="#000000" fill="#009688"/>
			<path d="M497,441.902H103.17c0.199-0.17,0.384-0.352,0.58-0.525c0.488-0.428,0.97-0.863,1.446-1.307     c0.325-0.303,0.647-0.609,0.964-0.918c0.198-0.193,0.403-0.375,0.599-0.57c0.275-0.275,0.534-0.563,0.804-0.843     c0.283-0.294,0.568-0.587,0.844-0.886c0.513-0.553,1.011-1.118,1.503-1.688c0.197-0.228,0.399-0.453,0.592-0.684     c0.658-0.785,1.297-1.584,1.914-2.398c0.018-0.024,0.037-0.046,0.055-0.07c2.013-2.664,3.801-5.482,5.362-8.437     c0.03-0.057,0.058-0.116,0.089-0.173c0.47-0.896,0.918-1.804,1.345-2.725c0.064-0.138,0.125-0.278,0.188-0.417     c0.236-0.519,0.481-1.033,0.704-1.559c0.143-0.337,0.265-0.68,0.401-1.02c0.069-0.172,0.136-0.344,0.203-0.516     c0.344-0.878,0.668-1.761,0.971-2.65c0.046-0.136,0.092-0.271,0.137-0.407c0.312-0.936,0.6-1.877,0.866-2.825     c0.03-0.106,0.06-0.211,0.089-0.317c0.268-0.973,0.51-1.952,0.73-2.936c0.022-0.1,0.046-0.2,0.068-0.3     c0.212-0.976,0.4-1.957,0.565-2.944c0.021-0.123,0.045-0.245,0.065-0.368c0.153-0.947,0.281-1.898,0.39-2.853     c0.019-0.169,0.045-0.336,0.063-0.505c0.097-0.912,0.168-1.83,0.225-2.749c0.013-0.206,0.035-0.41,0.046-0.616     c0.057-1.087,0.088-2.178,0.089-3.274h0.005c0-0.045-0.003-0.09-0.003-0.135V125.082h102.28l0.05-14.95l-102.777-0.044     c-1.226-10.299-4.977-20.078-11.033-28.626c-3.61-5.1-7.96-9.63-12.91-13.44c-5.01-3.86-10.54-6.92-16.44-9.11l-0.05-0.01     L79,72.922l-0.02,0.04l0.05,0.02c18.58,6.88,31.05,24.81,31.04,44.6v236.269c-11.479-13.429-28.523-21.966-47.533-21.966     c-19.012,0-36.058,8.539-47.537,21.97v-57.763l-15-0.05v98.32c0,0.01,0.001,0.02,0.001,0.03S0,394.412,0,394.421     c0,0.671,0.03,1.336,0.051,2.002c0.012,0.369,0.01,0.74,0.028,1.108c0.046,0.928,0.12,1.849,0.206,2.767     c0.011,0.119,0.015,0.238,0.027,0.357c0.101,1.016,0.228,2.023,0.378,3.024c0.003,0.021,0.005,0.042,0.008,0.063     c4.514,30.077,30.523,53.216,61.839,53.216v-0.056c0.001,0,0.002,0,0.003,0c0.655-0.001,1.306-0.03,1.958-0.05L512,456.902     v-36.47l-15-0.05V441.902z M62.54,441.902c-12.69-0.01-24.63-4.95-33.62-13.93c-2.788-2.791-5.187-5.869-7.17-9.166     c-0.079-0.131-0.152-0.266-0.229-0.399c-0.304-0.517-0.603-1.037-0.886-1.564c-0.129-0.24-0.249-0.486-0.374-0.729     c-0.223-0.432-0.447-0.864-0.656-1.302c-0.143-0.3-0.275-0.606-0.412-0.91c-0.178-0.395-0.36-0.789-0.527-1.189     c-0.133-0.319-0.255-0.643-0.381-0.966c-0.156-0.398-0.317-0.795-0.462-1.198c-0.111-0.306-0.21-0.618-0.314-0.927     c-0.145-0.43-0.294-0.858-0.427-1.292c-0.084-0.272-0.156-0.549-0.235-0.824c-0.137-0.479-0.276-0.957-0.398-1.441     c-0.057-0.225-0.104-0.455-0.158-0.681c-0.127-0.538-0.254-1.076-0.363-1.619c-0.034-0.172-0.061-0.347-0.093-0.52     c-0.113-0.599-0.222-1.2-0.312-1.805c-0.019-0.126-0.031-0.255-0.049-0.382c-0.091-0.65-0.176-1.302-0.241-1.959     c-0.011-0.109-0.015-0.22-0.025-0.329c-0.062-0.672-0.115-1.346-0.148-2.023c-0.013-0.278-0.013-0.559-0.021-0.837     c-0.016-0.506-0.037-1.011-0.037-1.519c0.015-26.197,21.332-47.506,47.535-47.506c26.167,0,47.46,21.252,47.533,47.402v0.075     c0,12.69-4.95,24.63-13.92,33.61C87.16,436.952,75.23,441.892,62.54,441.902z" data-original="#000000" class="active-path" data-old_color="#000000" fill="#009688"/>
			<polygon points="26.5,320.542 41.5,320.592 41.5,270.542 26.5,270.492    " data-original="#000000" class="active-path" data-old_color="#000000" fill="#009688"/>
			<polygon points="367.83,219.042 352.83,218.992 352.83,350.542 191.83,350.542 191.83,277.542 214.33,277.542 214.38,262.542      191.83,262.542 191.83,189.542 264.83,189.542 264.83,262.542 229.33,262.542 229.28,277.492 279.83,277.542 279.83,189.542      352.83,189.542 352.83,204.042 367.83,204.092 367.83,174.592 176.88,174.542 176.83,174.542 176.83,365.492 367.83,365.542         " data-original="#000000" class="active-path" data-old_color="#000000" fill="#009688"/>
			<rect x="197.5" y="383.05" width="15" height="15" data-original="#000000" class="active-path" data-old_color="#000000" fill="#009688"/>
			<rect x="222.5" y="383.05" width="15" height="15" data-original="#000000" class="active-path" data-old_color="#000000" fill="#009688"/>
			<rect x="172.5" y="383.05" width="15" height="15" data-original="#000000" class="active-path" data-old_color="#000000" fill="#009688"/>
			<rect x="222.5" y="412.34" width="15" height="15" data-original="#000000" class="active-path" data-old_color="#000000" fill="#009688"/>
			<rect x="197.5" y="412.34" width="15" height="15" data-original="#000000" class="active-path" data-old_color="#000000" fill="#009688"/>
			<rect x="172.5" y="412.34" width="15" height="15" data-original="#000000" class="active-path" data-old_color="#000000" fill="#009688"/>
			<polygon points="151.83,235.432 151.83,149.542 136.83,149.492 136.83,235.382    " data-original="#000000" class="active-path" data-old_color="#000000" fill="#009688"/>
			<polygon points="379.5,357.882 379.45,372.832 410.55,372.882 410.55,357.882 402.5,357.882 402.5,181.199 410.55,181.212      410.55,166.212 379.5,166.212 379.45,181.162 387.5,181.175 387.5,357.882    " data-original="#000000" class="active-path" data-old_color="#000000" fill="#009688"/>
			<polygon points="374.58,134.042 359.58,133.992 359.58,142.042 182.92,142.042 182.92,134.042 167.92,133.992 167.92,165.042      182.92,165.092 182.92,156.994 359.58,157.04 359.58,165.042 374.58,165.092    " data-original="#000000" class="active-path" data-old_color="#000000" fill="#009688"/>
			<rect x="220" y="313.05" width="15" height="15" data-original="#000000" class="active-path" data-old_color="#000000" fill="#009688"/>
			<rect x="270" y="313.05" width="59.5" height="15" data-original="#000000" class="active-path" data-old_color="#000000" fill="#009688"/>
			<rect x="245" y="313.05" width="15" height="15" data-original="#000000" class="active-path" data-old_color="#000000" fill="#009688"/>
			<polygon points="400.62,430.832 437.38,430.882 437.38,415.882 400.67,415.882    " data-original="#000000" class="active-path" data-old_color="#000000" fill="#009688"/>
		</g>
	</g>
</g></g> </svg>
