<?xml version="1.0" encoding="iso-8859-1"?>
<!-- Generator: Adobe Illustrator 19.0.0, SVG Export Plug-In . SVG Version: 6.00 Build 0)  -->
<svg version="1.1" id="Capa_1" xmlns="http://www.w3.org/2000/svg" xmlns:xlink="http://www.w3.org/1999/xlink" x="0px" y="0px"
	 viewBox="0 0 480 480" style="enable-background:new 0 0 480 480;" xml:space="preserve">
<g>
	<g>
		<g>
			<path d="M472,152c4.418,0,8-3.582,8-8v-32c0-4.418-3.582-8-8-8h-8V32c0-4.418-3.582-8-8-8H24c-4.418,0-8,3.582-8,8v72H8
				c-4.418,0-8,3.582-8,8v32c0,4.418,3.582,8,8,8h8v288H0v16h480v-16h-16V152H472z M32,40h416v64H32V40z M64,440H32v-48h24v-16H32
				v-32h24v-16H32v-32h24v-16H32v-32h24v-16H32v-32h24v-16H32v-32h32V440z M232,440h-40V312h40V440z M288,440h-40V312h40V440z
				 M400,440h-96V304c0-4.418-3.582-8-8-8H184c-4.418,0-8,3.582-8,8v136H80V152h320V440z M448,184h-24v16h24v32h-24v16h24v32h-24v16
				h24v32h-24v16h24v32h-24v16h24v48h-32V152h32V184z M16,136v-16h448v16H16z"/>
			<path d="M128,264h32c4.418,0,8-3.582,8-8v-64c0-4.418-3.582-8-8-8h-32c-4.418,0-8,3.582-8,8v64C120,260.418,123.582,264,128,264z
				 M136,200h16v48h-16V200z"/>
			<path d="M224,264h32c4.418,0,8-3.582,8-8v-64c0-4.418-3.582-8-8-8h-32c-4.418,0-8,3.582-8,8v64C216,260.418,219.582,264,224,264z
				 M232,200h16v48h-16V200z"/>
			<path d="M320,264h32c4.418,0,8-3.582,8-8v-64c0-4.418-3.582-8-8-8h-32c-4.418,0-8,3.582-8,8v64C312,260.418,315.582,264,320,264z
				 M328,200h16v48h-16V200z"/>
			<rect x="232" y="56" width="16" height="32"/>
			<rect x="296" y="56" width="16" height="32"/>
			<rect x="360" y="56" width="16" height="32"/>
			<rect x="168" y="56" width="16" height="32"/>
			<rect x="104" y="56" width="16" height="32"/>
		</g>
	</g>
</g>
<g>
</g>
<g>
</g>
<g>
</g>
<g>
</g>
<g>
</g>
<g>
</g>
<g>
</g>
<g>
</g>
<g>
</g>
<g>
</g>
<g>
</g>
<g>
</g>
<g>
</g>
<g>
</g>
<g>
</g>
</svg>
