<?xml version="1.0" encoding="iso-8859-1"?>
<!-- Generator: Adobe Illustrator 19.0.0, SVG Export Plug-In . SVG Version: 6.00 Build 0)  -->
<svg version="1.1" id="Capa_1" xmlns="http://www.w3.org/2000/svg" xmlns:xlink="http://www.w3.org/1999/xlink" x="0px" y="0px"
	 viewBox="0 0 496 496" style="enable-background:new 0 0 496 496;" xml:space="preserve">
<path style="fill:#F7B3D3;" d="M80,144v304h24h32h56h112h32h40h40V144H80z"/>
<path style="fill:#00D7DF;" d="M416,144h56c4.418,0,8-3.582,8-8v-16c0-4.418-3.582-8-8-8H24c-4.418,0-8,3.582-8,8v16
	c0,4.418,3.582,8,8,8H416z"/>
<path style="fill:#FBB040;" d="M456,32H40c-4.418,0-8,3.582-8,8v72h432V40C464,35.582,460.418,32,456,32z"/>
<g>
	<path style="fill:#ABD3F3;" d="M32,144h48v304H32V144z"/>
	<path style="fill:#ABD3F3;" d="M416,144h48v304h-48V144z"/>
</g>
<g>
	<path style="fill:#F1F2F2;" d="M136,192h32v64h-32V192z"/>
	<path style="fill:#F1F2F2;" d="M232,192h32v64h-32V192z"/>
	<path style="fill:#F1F2F2;" d="M328,192h32v64h-32V192z"/>
</g>
<path style="fill:#FFDA44;" d="M192,312v136h112V312c0-4.418-3.582-8-8-8h-96C195.582,304,192,307.582,192,312z"/>
<g>
	<path style="fill:#F1F2F2;" d="M240,56h16v32h-16V56z"/>
	<path style="fill:#F1F2F2;" d="M304,56h16v32h-16V56z"/>
	<path style="fill:#F1F2F2;" d="M368,56h16v32h-16V56z"/>
	<path style="fill:#F1F2F2;" d="M176,56h16v32h-16V56z"/>
	<path style="fill:#F1F2F2;" d="M112,56h16v32h-16V56z"/>
</g>
<g>
	<path style="fill:#FF9275;" d="M432,184h32v16h-32V184z"/>
	<path style="fill:#FF9275;" d="M432,232h32v16h-32V232z"/>
	<path style="fill:#FF9275;" d="M432,280h32v16h-32V280z"/>
	<path style="fill:#FF9275;" d="M432,328h32v16h-32V328z"/>
	<path style="fill:#FF9275;" d="M432,376h32v16h-32V376z"/>
	<path style="fill:#FF9275;" d="M32,184h32v16H32V184z"/>
	<path style="fill:#FF9275;" d="M32,232h32v16H32V232z"/>
	<path style="fill:#FF9275;" d="M32,280h32v16H32V280z"/>
	<path style="fill:#FF9275;" d="M32,328h32v16H32V328z"/>
	<path style="fill:#FF9275;" d="M32,376h32v16H32V376z"/>
</g>
<path style="fill:#A7A9AC;" d="M0,448h496v16H0V448z"/>
<g>
</g>
<g>
</g>
<g>
</g>
<g>
</g>
<g>
</g>
<g>
</g>
<g>
</g>
<g>
</g>
<g>
</g>
<g>
</g>
<g>
</g>
<g>
</g>
<g>
</g>
<g>
</g>
<g>
</g>
</svg>
