<svg id="Capa_1" enable-background="new 0 0 510 510" height="512" viewBox="0 0 510 510" width="512" xmlns="http://www.w3.org/2000/svg" xmlns:xlink="http://www.w3.org/1999/xlink"><linearGradient id="SVGID_1_" gradientUnits="userSpaceOnUse" x1="0" x2="510" y1="255" y2="255"><stop offset="0" stop-color="#f8f6f7"/><stop offset=".4802" stop-color="#f8f6f7"/><stop offset=".77" stop-color="#f1eff6"/><stop offset="1" stop-color="#e7e6f5"/></linearGradient><linearGradient id="lg1"><stop offset="0" stop-color="#f8f6f7"/><stop offset="1" stop-color="#d1ceeb"/></linearGradient><linearGradient id="SVGID_2_" gradientUnits="userSpaceOnUse" x1="287.062" x2="536.74" xlink:href="#lg1" y1="255" y2="255"/><linearGradient id="SVGID_3_" gradientUnits="userSpaceOnUse" x1="28.168" x2="428.672" xlink:href="#lg1" y1="255" y2="255"/><linearGradient id="SVGID_4_" gradientUnits="userSpaceOnUse" x1="202.219" x2="330.241" xlink:href="#lg1" y1="255" y2="255"/><linearGradient id="lg2"><stop offset="0" stop-color="#ffe177"/><stop offset="1" stop-color="#feb137"/></linearGradient><linearGradient id="SVGID_5_" gradientUnits="userSpaceOnUse" x1="241" x2="302.131" xlink:href="#lg2" y1="388.895" y2="388.895"/><linearGradient id="SVGID_6_" gradientUnits="userSpaceOnUse" x1="241" x2="302.131" xlink:href="#lg2" y1="121.105" y2="121.105"/><linearGradient id="SVGID_7_" gradientUnits="userSpaceOnUse" x1="206" x2="276.007" xlink:href="#lg2" y1="409.821" y2="409.821"/><linearGradient id="SVGID_8_" gradientUnits="userSpaceOnUse" x1="214" x2="270.223" xlink:href="#lg2" y1="100.179" y2="100.179"/><linearGradient id="lg3"><stop offset="0" stop-color="#a79ba7"/><stop offset=".7487" stop-color="#7a6d79"/><stop offset="1" stop-color="#685e68"/></linearGradient><linearGradient id="SVGID_9_" gradientUnits="userSpaceOnUse" x1="136.667" x2="193.337" xlink:href="#lg3" y1="215.318" y2="215.318"/><linearGradient id="SVGID_11_" gradientUnits="userSpaceOnUse" x1="222" x2="284.84" xlink:href="#lg3" y1="303.791" y2="303.791"/><g><path d="m448.765 510h-387.53c-33.819 0-61.235-27.416-61.235-61.235v-387.53c0-33.819 27.416-61.235 61.235-61.235h387.53c33.819 0 61.235 27.416 61.235 61.235v387.53c0 33.819-27.416 61.235-61.235 61.235z" fill="url(#SVGID_1_)"/><path d="m448.765 0h-40.02c33.819 0 61.235 27.416 61.235 61.235v387.53c0 33.819-27.416 61.235-61.235 61.235h40.02c33.819 0 61.235-27.416 61.235-61.235v-387.53c0-33.819-27.416-61.235-61.235-61.235z" fill="url(#SVGID_2_)"/><g><path d="m396.79 255c0-7.832 3.588-14.822 9.209-19.424 4.716-3.861 7.061-9.925 5.727-15.873-16.084-71.73-80.143-125.327-156.726-125.327s-140.642 53.597-156.726 125.327c-1.334 5.948 1.011 12.011 5.727 15.873 5.621 4.602 9.209 11.593 9.209 19.424s-3.588 14.822-9.209 19.424c-4.716 3.862-7.061 9.925-5.727 15.873 16.084 71.73 80.143 125.327 156.726 125.327s140.642-53.598 156.726-125.327c1.334-5.948-1.011-12.011-5.727-15.873-5.621-4.602-9.209-11.592-9.209-19.424z" fill="url(#SVGID_3_)"/><path d="m396.79 255c0-7.832 3.588-14.822 9.209-19.424 4.716-3.861 7.061-9.925 5.727-15.873-16.084-71.73-80.143-125.327-156.726-125.327-6.777 0-13.454.425-20.01 1.239 79.266 9.851 140.614 77.451 140.614 159.385s-61.348 149.534-140.614 159.385c6.556.815 13.233 1.239 20.01 1.239 76.583 0 140.642-53.598 156.726-125.327 1.334-5.948-1.011-12.011-5.727-15.873-5.621-4.602-9.209-11.592-9.209-19.424z" fill="url(#SVGID_4_)"/></g><g><g><path d="m261.89 362.17h-13.78c-7.25 0-13.12 5.87-13.12 13.12v39.09c6.56.82 13.23 1.24 20.01 1.24s13.45-.42 20.01-1.24v-39.09c0-7.25-5.87-13.12-13.12-13.12z" fill="url(#SVGID_5_)"/><path d="m255 94.38c-6.78 0-13.45.42-20.01 1.24v39.09c0 7.25 5.87 13.12 13.12 13.12h13.78c7.25 0 13.12-5.87 13.12-13.12v-39.09c-6.56-.82-13.23-1.24-20.01-1.24z" fill="url(#SVGID_6_)"/></g><path d="m275.01 414.385v-10.368c-12.625 5.091-26.042 8.631-40.02 10.368 6.556.815 13.233 1.239 20.01 1.239s13.454-.424 20.01-1.239z" fill="url(#SVGID_7_)"/><path d="m275.01 95.615c-6.556-.815-13.233-1.239-20.01-1.239s-13.454.425-20.01 1.239c13.978 1.737 27.395 5.277 40.02 10.368z" fill="url(#SVGID_8_)"/></g><g><g fill="url(#SVGID_9_)"><path d="m184.91 178.191h-25.172c-4.1 0-7.424 3.324-7.424 7.424v59.406c0 4.1 3.324 7.424 7.424 7.424h25.172c4.1 0 7.424-3.324 7.424-7.424v-59.406c0-4.1-3.324-7.424-7.424-7.424z"/><path d="m350.262 178.191h-25.172c-4.1 0-7.424 3.324-7.424 7.424v59.406c0 4.1 3.324 7.424 7.424 7.424h25.172c4.1 0 7.424-3.324 7.424-7.424v-59.406c0-4.1-3.324-7.424-7.424-7.424z"/></g><path d="m255 275.774c-11.051 0-20.01 8.959-20.01 20.01v28.602c0 4.1 3.324 7.424 7.424 7.424h25.172c4.1 0 7.424-3.324 7.424-7.424v-28.602c0-11.052-8.959-20.01-20.01-20.01z" fill="url(#SVGID_11_)"/></g></g></svg>
