<svg height="512" viewBox="0 0 64 64" width="512" xmlns="http://www.w3.org/2000/svg"><g id="Filled_outline" data-name="Filled outline"><rect fill="#cfdfe8" height="41" rx="2" width="52" x="6" y="20"/><path d="m44 9a6 6 0 1 0 -9 5.191v1.809h6v-1.809a5.992 5.992 0 0 0 3-5.191z" fill="#fcf05a"/><rect fill="#2d75bb" height="4" rx="2" width="10" x="33" y="16"/><path d="m40 24h-4l-1-4h6z" fill="#50b4f8"/><path d="m10 32h8v14h-8z" fill="#394d5c"/><path d="m10 36h4v4h-4z" fill="#7d8d9c"/><path d="m24 45h16v12h-16z" fill="#195c85"/><path d="m40 45h10v12h-10z" fill="#b11e48"/><path d="m8 62h48a3 3 0 0 0 3-3v-37a3 3 0 0 0 -3-3h-12.184a2.947 2.947 0 0 0 -1.816-3.816v-.446a7 7 0 1 0 -8 0v.446a2.947 2.947 0 0 0 -1.816 3.816h-24.184a3 3 0 0 0 -3 3v37a3 3 0 0 0 3 3zm25-53a5 5 0 1 1 7.5 4.325 1 1 0 0 0 -.5.865v.81h-4v-.81a1 1 0 0 0 -.5-.865 5.013 5.013 0 0 1 -2.5-4.325zm2 8h6a1 1 0 0 1 0 2h-6a1 1 0 0 1 0-2zm15 27h-26a1 1 0 0 0 -1 1v5h-7a1 1 0 0 1 -1-1v-2h3a1 1 0 0 0 1-1v-14a1 1 0 0 0 -1-1h-3v-1a1 1 0 0 1 1-1h20a3 3 0 0 0 3-3v-1h13a1 1 0 0 1 1 1v22a1 1 0 0 1 -1 1h-1v-4a1 1 0 0 0 -1-1zm-1 2v10h-8v-10zm-10 0v10h-14v-10zm-25-5a1 1 0 0 0 1-1v-4a1 1 0 0 0 -1-1h-3v-2h6v12h-6v-4zm-3-2v-2h2v2zm25.781-16-.5-2h3.438l-.5 2zm-29.781-1a1 1 0 0 1 1-1h26.22l.81 3.242a1 1 0 0 0 .97.758h1v1a1 1 0 0 1 -1 1h-20a3 3 0 0 0 -3 3v1h-3a1 1 0 0 0 -1 1v14a1 1 0 0 0 1 1h3v2a3 3 0 0 0 3 3h7v5a1 1 0 0 0 1 1h26a1 1 0 0 0 1-1v-6h1a3 3 0 0 0 3-3v-22a3 3 0 0 0 -3-3h-10.72l.5-2h14.22a1 1 0 0 1 1 1v37a1 1 0 0 1 -1 1h-48a1 1 0 0 1 -1-1z"/><path d="m29 54h2v-2h2v-2h-2v-2h-2v2h-2v2h2z"/><path d="m43 50h4v2h-4z"/><path d="m30 23h2v2h-2z"/><path d="m26 23h2v2h-2z"/><path d="m22 23h2v2h-2z"/><path d="m18 23h2v2h-2z"/><path d="m14 23h2v2h-2z"/><path d="m10 23h2v2h-2z"/><path d="m9 27h2v2h-2z"/><path d="m9 49h2v2h-2z"/><path d="m10 53h2v2h-2z"/><path d="m14 55h2v2h-2z"/><path d="m18 55h2v2h-2z"/><path d="m53 55h2v2h-2z"/><path d="m49 35h2v-7a1 1 0 0 0 -1-1h-4v2h3z"/><path d="m49 37h2v2h-2z"/></g></svg>