<svg id="Capa_1" enable-background="new 0 0 512.023 512.023" height="512" viewBox="0 0 512.023 512.023" width="512" xmlns="http://www.w3.org/2000/svg"><g><path d="m362.616 362.62c-5.825 5.825-15.339 5.882-21.22 0l-32-32c-5.85-5.86-5.85-15.36 0-21.22 5.86-5.85 15.36-5.85 21.22 0l32 32c5.85 5.86 5.85 15.36 0 21.22z" fill="#4d5788"/><path d="m362.616 362.62c-5.825 5.825-15.339 5.882-21.22 0l-32-32c-5.85-5.86-5.85-15.36 0-21.22z" fill="#313a6b"/><g fill="#4d5788"><path d="m400.006 319.01c-3.839 0-7.678-1.465-10.606-4.394l-32-32c-5.858-5.857-5.858-15.355 0-21.213 5.857-5.857 15.355-5.857 21.213 0l32 32c9.478 9.478 2.635 25.607-10.607 25.607z"/><path d="m448.006 271.01c-3.839 0-7.678-1.465-10.606-4.394l-32-32c-5.858-5.857-5.858-15.355 0-21.213 5.857-5.857 15.355-5.857 21.213 0l32 32c9.478 9.478 2.635 25.607-10.607 25.607z"/><path d="m497.006 224.01c-3.839 0-7.678-1.465-10.606-4.394l-33-33c-5.858-5.857-5.858-15.355 0-21.213 5.857-5.857 15.355-5.857 21.213 0l33 33c9.478 9.478 2.635 25.607-10.607 25.607z"/></g><path d="m209.006 512.01c-3.839 0-7.678-1.465-10.606-4.394l-33-33c-5.858-5.857-5.858-15.355 0-21.213 5.857-5.857 15.355-5.857 21.213 0l33 33c9.478 9.478 2.635 25.607-10.607 25.607z" fill="#313a6b"/><path d="m256.006 463.01c-3.839 0-7.678-1.465-10.606-4.394l-32-32c-5.858-5.857-5.858-15.355 0-21.213 5.857-5.857 15.355-5.857 21.213 0l32 32c9.478 9.478 2.635 25.607-10.607 25.607z" fill="#313a6b"/><path d="m488.006 173.22c-96.71 96.72-127.23 127.25-157.39 157.4l-157.4 157.39c-11.69 11.69-30.72 11.7-42.42 0-33.24-33.25-42.9-42.9-46.96-46.95v-.01s.17-37.04-43.83-81.04l320-320c44 44 81.04 43.83 81.04 43.83h.01c11.19 11.18 17.85 17.84 46.95 46.96 11.72 11.7 11.73 30.71 0 42.42z" fill="#f3d652"/><path d="m330.616 330.62-157.4 157.39c-11.69 11.69-30.72 11.7-42.42 0-33.24-33.25-42.9-42.9-46.96-46.95v-.01s.17-37.04-43.83-81.04l160-160z" fill="#e9bc3e"/><path d="m210.616 210.62-185 185c-2.93 2.93-6.77 4.39-10.61 4.39-13.311 0-20.024-16.18-10.61-25.61l185-185z" fill="#e9bc3e"/><path d="m294.616 230.62-64 64c-5.82 5.82-15.34 5.88-21.22 0l-52-52 85.22-85.22 52 52c5.85 5.86 5.85 15.36 0 21.22z" fill="#7fa6fb"/><path d="m262.616 262.62-32 32c-5.82 5.82-15.34 5.88-21.22 0l-52-52 42.61-42.61z" fill="#6693fb"/><path d="m378.616 21.4 62.64 62.64-74.64 74.58c-5.825 5.825-15.339 5.882-21.22 0l-52-52z" fill="#7fa6fb"/><path d="m106.616 293.4 52 52c5.85 5.86 5.85 15.36 0 21.22l-74.78 74.43-62.44-62.43z" fill="#6693fb"/><path d="m395.616 25.62-370 370c-2.93 2.93-6.77 4.39-10.61 4.39-13.311 0-20.024-16.18-10.61-25.61l370-370c5.86-5.85 15.36-5.85 21.22 0 5.85 5.86 5.85 15.36 0 21.22z" fill="#4d5788"/><path d="m210.616 210.62-185 185c-2.93 2.93-6.77 4.39-10.61 4.39-13.311 0-20.024-16.18-10.61-25.61l185-185z" fill="#313a6b"/></g></svg>