<svg height="512" viewBox="0 0 64 64" width="512" xmlns="http://www.w3.org/2000/svg"><g id="flat"><path d="m24 31h16v30h-16z" fill="#cfdfe8"/><path d="m30 9h4v22h-4z" fill="#4f97d5"/><path d="m24 34h8v2h-8z" fill="#2d75bb"/><path d="m36 34h4v2h-4z" fill="#2d75bb"/><path d="m31 56h2v2h-2z" fill="#f4f4e6"/><path d="m18 17v4h2a6 6 0 0 1 6 6v4h4v-4a10 10 0 0 0 -10-10z" fill="#dd3e46"/><path d="m31 2h2v7h-2z" fill="#d3843d"/><path d="m11 18h7v2h-7z" fill="#d3843d"/><path d="m46 17v4h-2a6 6 0 0 0 -6 6v4h-4v-4a10 10 0 0 1 10-10z" fill="#f9bb4b"/><path d="m46 18h7v2h-7z" fill="#d3843d"/><path d="m27 56h2v2h-2z" fill="#f4f4e6"/></g></svg>