<?xml version="1.0" encoding="iso-8859-1"?>
<!-- Generator: Adobe Illustrator 19.0.0, SVG Export Plug-In . SVG Version: 6.00 Build 0)  -->
<svg version="1.1" id="Capa_1" xmlns="http://www.w3.org/2000/svg" xmlns:xlink="http://www.w3.org/1999/xlink" x="0px" y="0px"
	 viewBox="0 0 480 480" style="enable-background:new 0 0 480 480;" xml:space="preserve">
<g>
	<path style="fill:#78B9EB;" d="M72,144v304h112V304h112v144h112V144H72z M160,256h-32v-64h32V256z M256,256h-32v-64h32V256z
		 M352,256h-32v-64h32V256z"/>
	<path style="fill:#78B9EB;" d="M24,32h432v80H24V32z"/>
</g>
<g>
	<path style="fill:#1E81CE;" d="M472,152c4.418,0,8-3.582,8-8v-32c0-4.418-3.582-8-8-8h-8V32c0-4.418-3.582-8-8-8H24
		c-4.418,0-8,3.582-8,8v72H8c-4.418,0-8,3.582-8,8v32c0,4.418,3.582,8,8,8h8v288H0v16h480v-16h-16V152H472z M32,40h416v64H32V40z
		 M16,120h448v16H16V120z M32,392h24v-16H32v-32h24v-16H32v-32h24v-16H32v-32h24v-16H32v-32h24v-16H32v-32h32v288H32V392z M80,152
		h320v288h-96V304c0-4.418-3.582-8-8-8H184c-4.418,0-8,3.582-8,8v136H80V152z M192,312h40v128h-40V312z M248,440V312h40v128H248z
		 M448,184h-24v16h24v32h-24v16h24v32h-24v16h24v32h-24v16h24v32h-24v16h24v48h-32V152h32V184z"/>
	<path style="fill:#1E81CE;" d="M160,184h-32c-4.418,0-8,3.582-8,8v64c0,4.418,3.582,8,8,8h32c4.418,0,8-3.582,8-8v-64
		C168,187.582,164.418,184,160,184z M152,248h-16v-48h16V248z"/>
	<path style="fill:#1E81CE;" d="M224,264h32c4.418,0,8-3.582,8-8v-64c0-4.418-3.582-8-8-8h-32c-4.418,0-8,3.582-8,8v64
		C216,260.418,219.582,264,224,264z M232,200h16v48h-16V200z"/>
	<path style="fill:#1E81CE;" d="M320,264h32c4.418,0,8-3.582,8-8v-64c0-4.418-3.582-8-8-8h-32c-4.418,0-8,3.582-8,8v64
		C312,260.418,315.582,264,320,264z M328,200h16v48h-16V200z"/>
	<path style="fill:#1E81CE;" d="M232,56h16v32h-16V56z"/>
	<path style="fill:#1E81CE;" d="M296,56h16v32h-16V56z"/>
	<path style="fill:#1E81CE;" d="M360,56h16v32h-16V56z"/>
	<path style="fill:#1E81CE;" d="M168,56h16v32h-16V56z"/>
	<path style="fill:#1E81CE;" d="M104,56h16v32h-16V56z"/>
</g>
<g>
</g>
<g>
</g>
<g>
</g>
<g>
</g>
<g>
</g>
<g>
</g>
<g>
</g>
<g>
</g>
<g>
</g>
<g>
</g>
<g>
</g>
<g>
</g>
<g>
</g>
<g>
</g>
<g>
</g>
</svg>
