<svg id="Capa_1" enable-background="new 0 0 510 510" height="512" viewBox="0 0 510 510" width="512" xmlns="http://www.w3.org/2000/svg" xmlns:xlink="http://www.w3.org/1999/xlink"><linearGradient id="lg1"><stop offset="0" stop-color="#ffe177"/><stop offset="1" stop-color="#feb137"/></linearGradient><linearGradient id="SVGID_1_" gradientUnits="userSpaceOnUse" x1="148.35" x2="361.65" xlink:href="#lg1" y1="210.908" y2="210.908"/><linearGradient id="SVGID_2_" gradientUnits="userSpaceOnUse" x1="234.99" x2="361.65" y1="210.908" y2="210.908"><stop offset="0" stop-color="#ffd15b"/><stop offset="1" stop-color="#eca026"/></linearGradient><linearGradient id="lg2"><stop offset="0" stop-color="#f8f6f7"/><stop offset=".1788" stop-color="#f8f6f7"/><stop offset="1" stop-color="#e7e6f5"/></linearGradient><linearGradient id="SVGID_3_" gradientUnits="userSpaceOnUse" x1="172.222" x2="338.585" xlink:href="#lg2" y1="394.004" y2="394.004"/><linearGradient id="lg3"><stop offset="0" stop-color="#f8f6f7"/><stop offset="1" stop-color="#d1ceeb"/></linearGradient><linearGradient id="SVGID_4_" gradientUnits="userSpaceOnUse" x1="272.667" x2="337.333" xlink:href="#lg3" y1="394.004" y2="394.004"/><linearGradient id="SVGID_5_" gradientUnits="userSpaceOnUse" x1="196" x2="269.333" y1="467.969" y2="467.969"><stop offset="0" stop-color="#a79ba7"/><stop offset=".7487" stop-color="#7a6d79"/><stop offset="1" stop-color="#685e68"/></linearGradient><linearGradient id="SVGID_6_" gradientUnits="userSpaceOnUse" x1="195" x2="299.005" y1="467.969" y2="467.969"><stop offset="0" stop-color="#7a6d79"/><stop offset="1" stop-color="#554e56"/></linearGradient><linearGradient id="SVGID_7_" gradientUnits="userSpaceOnUse" x1="172.222" x2="338.585" xlink:href="#lg2" y1="448.537" y2="448.537"/><linearGradient id="SVGID_8_" gradientUnits="userSpaceOnUse" x1="168" x2="365.501" xlink:href="#lg3" y1="448.535" y2="448.535"/><linearGradient id="lg4"><stop offset="0" stop-color="#fff9df"/><stop offset=".593" stop-color="#ffe177"/><stop offset="1" stop-color="#feb137"/></linearGradient><linearGradient id="SVGID_9_" gradientUnits="userSpaceOnUse" x1="124.396" x2="379.169" xlink:href="#lg4" y1="89.985" y2="89.985"/><linearGradient id="SVGID_10_" gradientUnits="userSpaceOnUse" x1="229" x2="378.483" xlink:href="#lg1" y1="89.985" y2="89.985"/><linearGradient id="SVGID_11_" gradientUnits="userSpaceOnUse" x1="124.396" x2="379.169" xlink:href="#lg4" y1="171.548" y2="171.548"/><linearGradient id="SVGID_12_" gradientUnits="userSpaceOnUse" x1="229" x2="378.483" xlink:href="#lg1" y1="171.547" y2="171.547"/><linearGradient id="SVGID_13_" gradientUnits="userSpaceOnUse" x1="124.396" x2="379.169" xlink:href="#lg4" y1="253.11" y2="253.11"/><linearGradient id="SVGID_14_" gradientUnits="userSpaceOnUse" x1="229" x2="378.483" xlink:href="#lg1" y1="253.11" y2="253.11"/><linearGradient id="SVGID_15_" gradientUnits="userSpaceOnUse" x1="437.333" x2="509.853" xlink:href="#lg4" y1="183.245" y2="183.245"/><linearGradient id="SVGID_16_" gradientUnits="userSpaceOnUse" x1="5.333" x2="74.67" xlink:href="#lg4" y1="183.245" y2="183.245"/><linearGradient id="SVGID_17_" gradientUnits="userSpaceOnUse" x1="377.333" x2="455.108" xlink:href="#lg4" y1="339.808" y2="339.808"/><linearGradient id="SVGID_18_" gradientUnits="userSpaceOnUse" x1="68" x2="140.691" xlink:href="#lg4" y1="26.682" y2="26.682"/><linearGradient id="SVGID_19_" gradientUnits="userSpaceOnUse" x1="60.667" x2="147.766" xlink:href="#lg4" y1="339.808" y2="339.808"/><linearGradient id="SVGID_20_" gradientUnits="userSpaceOnUse" x1="378.667" x2="446.719" xlink:href="#lg4" y1="26.683" y2="26.683"/><g><g><path d="m255.825 0h-1.65c-58.446 0-105.825 47.379-105.825 105.825v160.279c0 34.213 5.686 68.189 16.824 100.538l18.998 55.174 55.253-19.025-14.659-42.572c-7.149-20.762 8.276-42.386 30.234-42.386 21.958 0 37.383 21.624 30.234 42.386l-14.659 42.572 55.253 19.025 18.984-55.134c11.136-32.341 16.821-66.308 16.824-100.513l.013-160.344c.001-58.446-47.379-105.825-105.824-105.825z" fill="url(#SVGID_1_)"/><path d="m255.825 0h-1.65c-6.552 0-12.963.6-19.185 1.74 49.286 9.026 86.64 52.192 86.64 104.085l-.013 160.344c-.003 34.205-5.688 68.171-16.824 100.512l-14.742 42.815 35.778 12.319 18.984-55.134c11.136-32.341 16.821-66.308 16.824-100.512l.013-160.344c0-58.446-47.379-105.825-105.825-105.825z" fill="url(#SVGID_2_)"/><g><g><path d="m327.033 366.738h-144.066c-15.059 0-27.266 12.208-27.266 27.266 0 15.059 12.208 27.266 27.266 27.266h144.067c15.059 0 27.266-12.208 27.266-27.266 0-15.059-12.208-27.266-27.267-27.266z" fill="url(#SVGID_3_)"/></g><path d="m327.033 366.738h-40.02c15.059 0 27.266 12.208 27.266 27.266 0 15.059-12.208 27.266-27.266 27.266h40.02c15.059 0 27.266-12.208 27.266-27.266.001-15.059-12.207-27.266-27.266-27.266z" fill="url(#SVGID_4_)"/><path d="m334.667 450.559c0 32.828-35.668 59.441-79.667 59.441s-79.667-26.613-79.667-59.441 159.334-32.829 159.334 0z" fill="url(#SVGID_5_)"/><path d="m234.99 426.642c32.153 2.306 59.657 10.277 59.657 23.917 0 27.672-25.344 50.926-59.657 57.549 6.394 1.234 13.099 1.892 20.01 1.892 43.999 0 79.667-26.613 79.667-59.441 0-19.19-54.44-27.161-99.677-23.917z" fill="url(#SVGID_6_)"/><g><path d="m327.033 421.271h-144.066c-15.059 0-27.266 12.208-27.266 27.266 0 15.059 12.208 27.266 27.266 27.266h144.067c15.059 0 27.266-12.208 27.266-27.266 0-15.059-12.208-27.266-27.267-27.266z" fill="url(#SVGID_7_)"/></g><path d="m354.2 446.28c-.54-6.63-3.45-12.59-7.89-17.02-4.93-4.94-11.75-7.99-19.28-7.99h-144.06c-14.3 0-26.03 11.01-27.17 25.01h149.426c5.225 0 9.207 4.875 7.945 9.946-.038.153-.077.294-.117.422-3.453 11.098-13.808 19.152-26.044 19.152h40.02c15.06 0 27.27-12.2 27.27-27.26 0-.76-.03-1.52-.1-2.26z" fill="url(#SVGID_8_)"/></g><g><path d="m122.58 122.846c5.273 21.248 26.773 34.199 48.021 28.926l187.893-46.627c21.248-5.273 34.199-26.773 28.926-48.021-5.273-21.248-26.773-34.199-48.021-28.926l-187.893 46.627c-21.248 5.273-34.199 26.773-28.926 48.021z" fill="url(#SVGID_9_)"/><path d="m387.42 57.125c-5.273-21.249-26.773-34.199-48.021-28.926l-2.308.573c4.87 4.908 8.523 11.149 10.309 18.347 5.273 21.248-7.678 42.748-28.926 48.021l-185.585 46.054c9.506 9.579 23.662 14.065 37.712 10.579l187.893-46.627c21.248-5.274 34.199-26.773 28.926-48.021z" fill="url(#SVGID_10_)"/></g><g><path d="m122.58 204.409c5.273 21.248 26.773 34.199 48.021 28.926l187.893-46.627c21.248-5.273 34.199-26.773 28.926-48.021-5.273-21.248-26.773-34.199-48.021-28.926l-187.893 46.627c-21.248 5.273-34.199 26.772-28.926 48.021z" fill="url(#SVGID_11_)"/><path d="m387.42 138.687c-5.273-21.249-26.773-34.199-48.021-28.926l-2.308.573c4.87 4.908 8.523 11.149 10.309 18.347 5.273 21.248-7.678 42.748-28.926 48.021l-185.585 46.054c9.506 9.579 23.662 14.065 37.712 10.579l187.893-46.627c21.248-5.273 34.199-26.773 28.926-48.021z" fill="url(#SVGID_12_)"/></g><g><path d="m122.58 285.971c5.273 21.248 26.773 34.199 48.021 28.926l187.893-46.627c21.248-5.273 34.199-26.773 28.926-48.021-5.273-21.248-26.773-34.199-48.021-28.926l-187.893 46.627c-21.248 5.273-34.199 26.773-28.926 48.021z" fill="url(#SVGID_13_)"/><path d="m387.42 220.249c-5.273-21.249-26.773-34.199-48.021-28.926l-2.308.573c4.87 4.908 8.523 11.149 10.309 18.347 5.273 21.248-7.678 42.748-28.926 48.021l-185.585 46.054c9.506 9.579 23.662 14.065 37.712 10.579l187.893-46.627c21.248-5.273 34.199-26.773 28.926-48.021z" fill="url(#SVGID_14_)"/></g></g><g><g><path d="m499.985 193.26h-47.143c-5.531 0-10.015-4.484-10.015-10.015s4.484-10.015 10.015-10.015h47.143c5.531 0 10.015 4.484 10.015 10.015s-4.484 10.015-10.015 10.015z" fill="url(#SVGID_15_)"/><path d="m57.159 193.26h-47.144c-5.531 0-10.015-4.484-10.015-10.015s4.484-10.015 10.015-10.015h47.144c5.531 0 10.015 4.484 10.015 10.015s-4.484 10.015-10.015 10.015z" fill="url(#SVGID_16_)"/></g><g><path d="m428.231 366.491c-2.563 0-5.126-.978-7.082-2.933l-33.336-33.336c-3.911-3.911-3.911-10.252 0-14.163 3.912-3.91 10.251-3.91 14.163 0l33.336 33.336c3.911 3.911 3.911 10.252 0 14.163-1.956 1.955-4.518 2.933-7.081 2.933z" fill="url(#SVGID_17_)"/><path d="m115.105 53.365c-2.563 0-5.126-.978-7.081-2.933l-33.336-33.336c-3.911-3.911-3.911-10.252 0-14.163s10.252-3.911 14.163 0l33.336 33.335c3.911 3.911 3.911 10.252 0 14.163-1.956 1.956-4.519 2.934-7.082 2.934z" fill="url(#SVGID_18_)"/></g><g><path d="m81.769 366.491c-2.563 0-5.126-.978-7.082-2.933-3.911-3.911-3.911-10.252 0-14.163l33.336-33.336c3.911-3.91 10.252-3.91 14.163 0 3.911 3.911 3.911 10.252 0 14.163l-33.336 33.336c-1.955 1.955-4.518 2.933-7.081 2.933z" fill="url(#SVGID_19_)"/><path d="m394.895 53.365c-2.563 0-5.126-.978-7.082-2.933-3.911-3.911-3.911-10.252 0-14.163l33.336-33.335c3.913-3.911 10.252-3.91 14.163 0 3.911 3.911 3.911 10.252 0 14.163l-33.336 33.335c-1.956 1.955-4.519 2.933-7.081 2.933z" fill="url(#SVGID_20_)"/></g></g></g></svg>