<?xml version="1.0" encoding="iso-8859-1"?>
<!-- Generator: Adobe Illustrator 19.0.0, SVG Export Plug-In . SVG Version: 6.00 Build 0)  -->
<svg version="1.1" id="Capa_1" xmlns="http://www.w3.org/2000/svg" xmlns:xlink="http://www.w3.org/1999/xlink" x="0px" y="0px"
	 viewBox="0 0 512.001 512.001" style="enable-background:new 0 0 512.001 512.001;" xml:space="preserve">
<polygon style="fill:#E6E7E8;" points="187.061,360.712 187.061,254.673 187.061,213.18 50.457,213.18 50.457,469.312 
	187.061,469.312 "/>
<path style="fill:#0A87EB;" d="M204.136,486.387c0-9.434-7.641-17.076-17.075-17.076H50.457c-9.434,0-17.075,7.641-17.075,17.076
	v17.076h170.755V486.387z"/>
<path style="fill:#BCBEC0;" d="M187.061,140.848c-0.009-7.667,5.097-14.395,12.482-16.461l133.564-37.31
	c27.193-7.599,43.116-35.773,35.585-62.991L364.424,8.53L90.986,66.902c-23.632,5.046-40.529,25.929-40.529,50.091v96.186h136.604
	V140.848z"/>
<path style="fill:#E6E7E8;" d="M478.625,282.591l-8.854-33.007c-9.776-36.431-47.239-58.04-83.67-48.264l-199.04,53.352v106.039
	L478.625,282.591z"/>
<path style="fill:#ACABB1;" d="M466.544,303.543l-4.423-16.495l-98.961,26.518l4.423,16.495c2.442,9.11,11.808,14.514,20.917,12.072
	l0,0l65.971-17.682C463.573,322.01,468.977,312.653,466.544,303.543z"/>
<path style="fill:#0A87EB;" d="M434.656,503.463c23.573,0,42.689-19.116,42.689-42.689s-42.689-85.377-42.689-85.377
	s-42.689,61.805-42.689,85.377C391.967,484.355,411.074,503.463,434.656,503.463z"/>
<g>
	<path style="fill:#231F20;" d="M486.872,280.372l-8.862-32.99c-11.031-40.956-53.13-65.245-94.103-54.309l-188.309,50.475V140.839
		c0-3.833,2.553-7.189,6.241-8.222l133.556-37.318c31.709-8.905,50.262-41.75,41.528-73.501L372.612,6.25
		c-1.212-4.346-5.592-7.001-10.006-6.062L89.201,58.553c-27.509,5.993-47.171,30.292-47.282,58.441v345.352
		c-10.194,3.603-17.033,13.225-17.075,24.042v17.076c0,4.713,3.825,8.538,8.538,8.538h170.755c4.713,0,8.538-3.825,8.538-8.538
		v-17.076c-0.043-10.817-6.881-20.439-17.075-24.042V367.26l161.517-43.269l2.22,8.273c3.62,13.643,17.613,21.763,31.257,18.143
		c0.043-0.009,0.077-0.026,0.12-0.034l65.971-17.665c13.66-3.663,21.763-17.716,18.1-31.376l0,0l-2.22-8.282l8.264-2.211
		c4.551-1.221,7.257-5.9,6.036-10.459C486.864,280.38,486.864,280.38,486.872,280.372L486.872,280.372z M452.26,316.23
		l-65.971,17.682c-4.551,1.229-9.238-1.469-10.467-6.028v-0.009l-2.203-8.247l82.475-22.096l2.211,8.247
		c1.195,4.551-1.503,9.204-6.045,10.425L452.26,316.23L452.26,316.23z M58.995,221.717h119.528v239.057H58.995V221.717z
		 M58.995,116.993c0.085-20.115,14.13-37.464,33.775-41.75l265.524-56.682l2.16,7.795c6.233,22.676-7.018,46.138-29.66,52.507l0,0
		l-133.547,37.318c-11.056,3.108-18.698,13.174-18.723,24.657v63.803H58.995L58.995,116.993L58.995,116.993z M195.599,494.925
		H41.919v-8.538c0-4.713,3.825-8.538,8.538-8.538h136.604c4.713,0,8.538,3.825,8.538,8.538V494.925z M195.599,261.23l192.723-51.67
		c31.871-8.487,64.597,10.408,73.194,42.245l6.651,24.759l-272.568,73.032V261.23z"/>
	<path style="fill:#231F20;" d="M434.656,360.37l-7.027,10.177c-4.525,6.557-44.2,64.725-44.2,90.227
		c0,28.294,22.932,51.226,51.226,51.226s51.226-22.932,51.226-51.226c0-25.502-39.675-83.67-44.2-90.227L434.656,360.37z
		 M434.656,494.925c-18.86,0-34.151-15.291-34.151-34.151c0-13.123,18.783-46.343,34.151-70.01
		c15.368,23.675,34.151,56.896,34.151,70.01C468.807,479.634,453.515,494.925,434.656,494.925z"/>
</g>
<g>
</g>
<g>
</g>
<g>
</g>
<g>
</g>
<g>
</g>
<g>
</g>
<g>
</g>
<g>
</g>
<g>
</g>
<g>
</g>
<g>
</g>
<g>
</g>
<g>
</g>
<g>
</g>
<g>
</g>
</svg>
