<?xml version="1.0" encoding="iso-8859-1"?>
<!-- Generator: Adobe Illustrator 19.0.0, SVG Export Plug-In . SVG Version: 6.00 Build 0)  -->
<svg version="1.1" id="Capa_1" xmlns="http://www.w3.org/2000/svg" xmlns:xlink="http://www.w3.org/1999/xlink" x="0px" y="0px"
	 viewBox="0 0 512 512" style="enable-background:new 0 0 512 512;" xml:space="preserve">
<path style="fill:#2C3E50;" d="M367.982,429.575H144.018c-8.284,0-15,6.716-15,15V497c0,8.284,6.716,15,15,15h223.965
	c8.284,0,15-6.716,15-15v-52.425C382.982,436.291,376.267,429.575,367.982,429.575z"/>
<path style="fill:#446382;" d="M257.145,429.575H144.018c-8.284,0-15,6.716-15,15V497c0,8.284,6.716,15,15,15h113.127
	L257.145,429.575L257.145,429.575z"/>
<path style="fill:#D0D7D9;" d="M354.387,0H157.613c-24.813,0-45,20.187-45,45v379.679c0,24.813,20.187,45,45,45h196.773
	c24.813,0,45-20.187,45-45V45C399.387,20.187,379.2,0,354.387,0z"/>
<path style="fill:#F7F7F7;" d="M257.145,0h-99.531c-24.813,0-45,20.187-45,45v379.679c0,24.813,20.187,45,45,45h99.531V0z"/>
<path style="fill:#A6B3B8;" d="M399.387,141.178V45c0-24.813-20.187-45-45-45H157.613c-24.813,0-45,20.187-45,45v96.555
	C181.155,141.319,330.703,140.872,399.387,141.178z"/>
<g>
	<path style="fill:#D0D7D9;" d="M257.145,0h-99.531c-24.813,0-45,20.187-45,45v96.555c44.178-0.152,122.005-0.392,144.531-0.461V0z"
		/>
	<path style="fill:#D0D7D9;" d="M180.851,198.36c-8.284,0-15,6.716-15,15v65.936c0,8.284,6.716,15,15,15s15-6.716,15-15V213.36
		C195.851,205.076,189.135,198.36,180.851,198.36z"/>
</g>
<path style="fill:#F7F7F7;" d="M180.851,51.839c-8.284,0-15,6.716-15,15v29.946c0,8.284,6.716,15,15,15s15-6.716,15-15V66.839
	C195.851,58.555,189.135,51.839,180.851,51.839z"/>
<g>
</g>
<g>
</g>
<g>
</g>
<g>
</g>
<g>
</g>
<g>
</g>
<g>
</g>
<g>
</g>
<g>
</g>
<g>
</g>
<g>
</g>
<g>
</g>
<g>
</g>
<g>
</g>
<g>
</g>
</svg>
