<svg xmlns="http://www.w3.org/2000/svg" viewBox="0 0 40 40"><path fill="#f5ce85" d="M1.5 30.662L1.5 21.617 20.014 8.602 38.5 20.41 38.5 30.662 20 38.458z"></path><path fill="#967a44" d="M20.027,9.204L38,20.684v9.646l-18,7.585L2,30.33v-8.453L20.027,9.204 M20,8L1,21.357v9.636L20,39 l19-8.007V20.136L20,8L20,8z"></path><path fill="#b5ddf5" d="M20 22.459L1.5 30.109 1.5 9.338 20 1.542 38.5 9.338 38.5 30.109z"></path><path fill="#7496c4" d="M20,2.085L38,9.67v19.691l-17.618-7.286L20,21.918l-0.382,0.158L2,29.361V9.67L20,2.085 M20,1 L1,9.007v21.851L20,23l19,7.857V9.007L20,1L20,1z"></path><path fill="#e6f6ff" d="M38 9.667L20 2.084 20 21.918 38 29.367z"></path><path fill="#ffc49c" d="M24.5 24.32L24.5 8.753 33.5 12.539 33.5 28.042z"></path><path fill="#a16a4a" d="M25,9.506l8,3.366v14.423l-8-3.308V9.506 M24,8v16.654l10,4.135V12.207L24,8L24,8z"></path><g><path fill="#8bb7f0" d="M7.5 13.12L15.5 9.562 15.5 18.023 7.5 21.507z"></path><path fill="#4e7ab5" d="M15,10.331v7.364l-7,3.049v-7.3L15,10.331 M16,8.792l-9,4.003v9.476l9-3.92V8.792L16,8.792z"></path></g><path fill="#a16a4a" d="M31.5 19A0.5 0.5 0 1 0 31.5 20A0.5 0.5 0 1 0 31.5 19Z"></path></svg>
