<svg id="Layer_1" enable-background="new 0 0 512 512" height="512" viewBox="0 0 512 512" width="512" xmlns="http://www.w3.org/2000/svg"><g><path d="m464.866 319.2h-112.466c-8.284 0-15-6.716-15-15v-64.267c0-8.284 6.716-15 15-15h112.466c8.284 0 15 6.716 15 15v64.267c0 8.284-6.716 15-15 15z" fill="#bcbcd0"/><path d="m464.866 224.934h-56.233v94.266h56.233c8.284 0 15-6.716 15-15v-64.267c0-8.284-6.716-14.999-15-14.999z" fill="#a7a7c1"/><path d="m159.6 319.2h-112.466c-8.284 0-15-6.716-15-15v-64.267c0-8.284 6.716-15 15-15h112.466c8.284 0 15 6.716 15 15v64.267c0 8.284-6.716 15-15 15z" fill="#bcbcd0"/><path d="m159.6 224.934h-56.233v94.266h56.233c8.284 0 15-6.716 15-15v-64.267c0-8.284-6.716-14.999-15-14.999z" fill="#a7a7c1"/><path d="m400.6 512h-289.2c-43.426 0-79.267-35.11-79.267-79.267v-64.267c0-8.284 6.716-15 15-15h417.732c8.284 0 15 6.716 15 15v64.267c.001 43.773-35.41 79.267-79.265 79.267z" fill="#dddddf"/><path d="m479.866 432.733v-64.267c0-8.284-6.716-15-15-15h-208.866v158.534h144.6c43.855 0 79.266-35.494 79.266-79.267z" fill="#d0d0d5"/><path d="m288.134 319.2h-64.268c-8.284 0-15-6.716-15-15v-192.8c0-61.427 49.974-111.4 111.4-111.4 61.541 0 111.4 49.776 111.4 111.4v64.267c0 8.284-6.716 15-15 15h-64.266c-8.284 0-15-6.716-15-15v-64.267c0-9.449-7.664-17.134-17.134-17.134-9.488 0-17.133 7.724-17.133 17.134v192.8c.001 8.284-6.715 15-14.999 15z" fill="#f4f1f1"/><path d="m303.134 304.2v-192.8c0-9.41 7.645-17.134 17.133-17.134 9.469 0 17.134 7.684 17.134 17.134v64.267c0 8.284 6.716 15 15 15h64.267c8.284 0 15-6.716 15-15v-64.267c0-61.624-49.859-111.4-111.4-111.4-23.918 0-46.097 7.578-64.268 20.456v298.744h32.134c8.284 0 15-6.716 15-15z" fill="#e4e4e7"/><path d="m497 383.467h-482c-8.284 0-15-6.716-15-15v-64.267c0-8.284 6.716-15 15-15h482c8.284 0 15 6.716 15 15v64.267c0 8.284-6.716 15-15 15z" fill="#e4e4e7"/><path d="m512 368.467v-64.267c0-8.284-6.716-15-15-15h-241v94.267h241c8.284 0 15-6.716 15-15z" fill="#dddddf"/></g></svg>