<svg id="Capa_1" enable-background="new 0 0 512 512" height="512" viewBox="0 0 512 512" width="512" xmlns="http://www.w3.org/2000/svg"><g><path d="m364.852 152.299-35.082-20.604h-140.71l-41.911 20.604 27.862 36.386c6.031 7.876 15.385 12.495 25.305 12.495h111.37c9.92 0 19.274-4.619 25.305-12.495z" fill="#f6f1f1"/><path d="m329.77 131.696h-26.565l35.082 20.604-27.862 36.386c-6.031 7.876-15.385 12.495-25.305 12.495h26.565c9.92 0 19.274-4.619 25.305-12.495l27.862-36.386z" fill="#eadfda"/><g><path d="m256 186.768c-4.268 0-7.726-3.459-7.726-7.726v-4.603c0-4.268 3.459-7.726 7.726-7.726 4.268 0 7.726 3.459 7.726 7.726v4.603c0 4.267-3.459 7.726-7.726 7.726z" fill="#da4a54"/></g><path d="m431.813 82.815-32.53-20.604h-294.718l-24.379 20.604 28.695 53.27c5.38 9.987 15.808 16.215 27.152 16.215h239.933c11.344 0 21.772-6.228 27.152-16.215z" fill="#544f57"/><path d="m399.283 62.211h-23.806l32.53 20.604-28.695 53.27c-5.38 9.987-15.808 16.215-27.152 16.215h23.806c11.344 0 21.772-6.227 27.152-16.215l28.695-53.27z" fill="#454045"/><g><g><path d="m173.719 160.028c-2.828 0-5.551-1.558-6.908-4.257l-37.43-74.412c-1.918-3.812-.381-8.457 3.431-10.374 3.812-1.92 8.457-.381 10.374 3.431l37.43 74.412c1.917 3.812.381 8.457-3.431 10.374-1.114.561-2.299.826-3.466.826z" fill="#454045"/></g><g><path d="m222.958 160.028c-3.05 0-5.94-1.818-7.16-4.817l-30.268-74.412c-1.608-3.953.293-8.461 4.245-10.068 3.957-1.608 8.461.295 10.068 4.245l30.268 74.412c1.608 3.953-.293 8.461-4.245 10.068-.953.388-1.939.572-2.908.572z" fill="#454045"/></g><g><path d="m338.28 160.028c-1.167 0-2.352-.266-3.466-.826-3.812-1.917-5.348-6.562-3.431-10.374l37.43-74.412c1.917-3.812 6.562-5.349 10.374-3.431s5.348 6.562 3.431 10.374l-37.43 74.412c-1.356 2.699-4.08 4.257-6.908 4.257z" fill="#454045"/></g><g><path d="m289.041 160.028c-.969 0-1.955-.184-2.908-.571-3.953-1.608-5.853-6.116-4.245-10.068l30.269-74.412c1.608-3.951 6.113-5.853 10.068-4.245 3.953 1.608 5.853 6.116 4.245 10.068l-30.269 74.412c-1.22 2.998-4.11 4.816-7.16 4.816z" fill="#454045"/></g></g><g><path d="m256 134.827c-4.268 0-7.726-3.459-7.726-7.726v-19.087c0-4.268 3.459-7.726 7.726-7.726 4.268 0 7.726 3.459 7.726 7.726v19.087c0 4.267-3.459 7.726-7.726 7.726z" fill="#da4a54"/></g><circle cx="84.884" cy="248.935" fill="#756e78" r="44.614"/><path d="m444.151 82.815h-376.303c-4.381 0-7.932-3.551-7.932-7.932v-71.163c0-2.054 1.665-3.72 3.72-3.72h384.728c2.054 0 3.72 1.665 3.72 3.72v71.163c0 4.38-3.552 7.932-7.933 7.932z" fill="#f6f1f1"/><path d="m430.688 0v74.883c0 4.381-3.552 7.932-7.932 7.932h21.396c4.381 0 7.932-3.551 7.932-7.932v-71.163c0-2.054-1.665-3.72-3.72-3.72z" fill="#eadfda"/><g><path d="m393.448 49.134h-274.896c-4.268 0-7.726-3.459-7.726-7.726s3.459-7.726 7.726-7.726h274.896c4.268 0 7.726 3.459 7.726 7.726s-3.458 7.726-7.726 7.726z" fill="#eadfda"/></g><circle cx="95.786" cy="307.997" fill="#8b818e" r="55.159"/><g><path d="m134.438 371.076c0-20.704-11.6-38.691-28.654-47.833-4.707-2.523-7.174-7.91-5.808-13.073.6-2.268.92-4.65.92-7.108 0-12.944-8.852-23.819-20.832-26.906-.662-.171-1.047-.834-.867-1.493.891-3.249 1.212-6.733.829-10.344-1.431-13.493-12.696-24.103-26.249-24.759-8.284-.401-15.815 2.833-21.15 8.238-.556.563-1.498.429-1.872-.268-4.688-8.717-13.89-14.646-24.482-14.646h-.065c-3.429.004-6.208 2.786-6.208 6.217v266.508c0 4.221 4.06 7.349 8.098 6.121 11.396-3.467 19.689-14.059 19.689-26.588v-.023c0-.926 1.001-1.509 1.801-1.041 6.615 3.865 14.324 6.059 22.555 5.986 23.879-.213 43.49-19.909 43.606-43.788.036-7.383-1.755-14.341-4.935-20.462-.364-.701.029-1.543.802-1.708 24.471-5.25 42.822-26.99 42.822-53.03z" fill="#afaab4"/><g><path d="m18.695 505.609v-266.367c0-1.089.275-2.122.759-3.027-3.922-2.12-8.407-3.332-13.179-3.332-.022 0-.043 0-.065 0-3.454.009-6.21 2.905-6.21 6.359v266.367c0 4.221 4.06 7.35 8.098 6.121 3.993-1.215 7.592-3.32 10.6-6.061 0-.02-.003-.039-.003-.06z" fill="#8b818e"/></g><path d="m105.95 323.336c-.032-.017-.064-.035-.096-.052-4.727-2.543-7.267-7.907-5.9-13.098.324-1.231.567-2.496.722-3.787-.714.455-1.369 1.028-1.923 1.731-4.5 5.707-16.406 17.549-24.842 18.206-4.161.324-7.648 3.541-7.655 7.715-.007 4.321 3.494 7.747 7.72 7.747.123 0 .246-.003.37-.009 12.674-.598 24.953-11.451 31.604-18.453z" fill="#756e78"/></g><circle cx="427.116" cy="248.935" fill="#756e78" r="44.614"/><circle cx="416.214" cy="307.997" fill="#8b818e" r="55.159"/><g><path d="m377.562 371.076c0-20.722 11.621-38.723 28.699-47.858 4.683-2.505 7.144-7.868 5.776-12.999-.609-2.283-.933-4.682-.933-7.157 0-12.944 8.852-23.818 20.832-26.906.662-.171 1.048-.834.867-1.494-.891-3.249-1.212-6.733-.829-10.344 1.431-13.493 12.696-24.103 26.249-24.759 8.284-.401 15.815 2.833 21.15 8.239.555.563 1.497.429 1.872-.268 4.688-8.718 13.89-14.647 24.482-14.647h.065c3.431.004 6.21 2.787 6.21 6.217v266.508c0 4.221-4.06 7.349-8.098 6.121-11.396-3.467-19.689-14.059-19.689-26.588 0-.008 0-.015 0-.023.001-.928-.978-1.522-1.78-1.054-6.603 3.863-14.297 6.061-22.514 5.999-23.903-.18-43.553-19.885-43.669-43.789-.036-7.383 1.755-14.341 4.935-20.462.364-.701-.029-1.542-.802-1.708-24.472-5.248-42.823-26.988-42.823-53.028z" fill="#afaab4"/><g><path d="m505.79 232.883c-.022 0-.043 0-.065 0-4.455 0-8.656 1.063-12.387 2.928.63.996.997 2.176.997 3.432v266.367c0 .315-.029.62-.073.922 2.802 2.326 6.068 4.113 9.639 5.2 4.038 1.228 8.098-1.9 8.098-6.121v-266.369c.001-3.454-2.755-6.35-6.209-6.359z" fill="#8b818e"/></g><path d="m438.024 341.798c4.226 0 7.727-3.426 7.72-7.746-.006-4.107-3.378-7.46-7.477-7.704-8.089-.48-19.621-11.405-25.02-18.219-.554-.702-1.208-1.275-1.922-1.729.157 1.309.404 2.589.735 3.836 1.369 5.159-1.164 10.499-5.867 13.024l-.142.077c6.652 7.002 18.932 17.855 31.604 18.453.123.005.246.008.369.008z" fill="#756e78"/></g><g><path d="m473.965 199.053c-3.805 0-7.119-2.811-7.646-6.686-.927-6.813 1.585-10.962 3.246-13.707 1.139-1.882 1.344-2.221 1.154-3.623-.19-1.401-.479-1.674-2.079-3.184-2.335-2.202-5.862-5.529-6.789-12.342s1.585-10.962 3.246-13.706c1.139-1.882 1.344-2.221 1.154-3.622-.574-4.228 2.386-8.122 6.615-8.697 4.224-.586 8.122 2.386 8.697 6.615.927 6.812-1.585 10.961-3.246 13.705-1.139 1.882-1.344 2.222-1.154 3.623s.479 1.674 2.079 3.184c2.335 2.202 5.862 5.529 6.789 12.342s-1.585 10.962-3.246 13.707c-1.139 1.882-1.344 2.221-1.154 3.623.574 4.228-2.387 8.123-6.615 8.697-.352.048-.703.071-1.051.071z" fill="#8b818e"/></g><g><path d="m316.732 336.03c-3.324 0-6.393-2.162-7.397-5.509-1.93-6.434-.142-10.81 1.042-13.705.816-1.997.894-2.256.545-3.421-.349-1.164-.557-1.337-2.337-2.555-2.581-1.767-6.483-4.436-8.412-10.87-1.931-6.434-.142-10.809 1.042-13.705.816-1.996.894-2.255.545-3.418-1.226-4.088 1.094-8.395 5.18-9.621 4.09-1.227 8.394 1.093 9.621 5.18 1.931 6.435.142 10.81-1.042 13.706-.816 1.996-.894 2.255-.545 3.418.349 1.165.557 1.338 2.337 2.556 2.581 1.767 6.483 4.436 8.412 10.87 1.931 6.434.142 10.81-1.042 13.705-.816 1.997-.894 2.256-.545 3.421 1.226 4.087-1.094 8.394-5.181 9.62-.74.223-1.488.328-2.223.328z" fill="#8b818e"/></g><g><path d="m255.396 281.641c-3.911 0-7.267-2.959-7.676-6.935-.605-5.857 1.713-9.421 3.098-11.548.266-.409.631-.97.695-1.157-.001 0 .013-.118-.015-.382-.029-.285-.07-.393-.07-.394-.091-.149-.563-.625-.908-.972-1.79-1.802-4.785-4.817-5.388-10.673-.604-5.858 1.714-9.421 3.099-11.549.267-.408.63-.968.696-1.156-.002 0 .011-.118-.016-.38-.437-4.244 2.65-8.04 6.894-8.478 4.241-.428 8.04 2.65 8.478 6.894.603 5.857-1.715 9.419-3.1 11.547-.267.408-.63.969-.696 1.156h.001c.001 0-.012.118.015.381.029.285.07.392.07.393.091.149.563.626.909.973 1.79 1.802 4.785 4.817 5.388 10.674s-1.714 9.42-3.099 11.548c-.267.408-.631.969-.696 1.156.002 0-.012.118.015.381.439 4.244-2.648 8.04-6.892 8.478-.27.029-.537.043-.802.043z" fill="#8b818e"/></g><g><path d="m33.935 199.053c-.347 0-.697-.023-1.051-.071-4.227-.574-7.189-4.469-6.615-8.697.19-1.401-.015-1.74-1.154-3.623-1.662-2.745-4.173-6.894-3.246-13.707s4.455-10.14 6.789-12.342c1.601-1.51 1.889-1.782 2.079-3.184.19-1.4-.015-1.74-1.154-3.623-1.662-2.744-4.173-6.893-3.246-13.705.575-4.227 4.472-7.196 8.697-6.615 4.228.575 7.189 4.469 6.615 8.697-.19 1.4.015 1.739 1.154 3.622 1.662 2.744 4.173 6.893 3.246 13.706s-4.454 10.14-6.788 12.342c-1.602 1.511-1.89 1.783-2.08 3.184s.015 1.74 1.154 3.623c1.662 2.745 4.173 6.894 3.246 13.707-.527 3.874-3.842 6.686-7.646 6.686z" fill="#8b818e"/></g><g><path d="m191.17 336.03c-.734 0-1.482-.106-2.221-.327-4.088-1.225-6.408-5.533-5.183-9.62.35-1.165.272-1.424-.544-3.422-1.184-2.895-2.972-7.272-1.042-13.705 1.929-6.435 5.83-9.104 8.412-10.87 1.781-1.218 1.988-1.391 2.337-2.555.348-1.164.271-1.423-.545-3.418-1.184-2.895-2.973-7.272-1.043-13.705 1.225-4.088 5.535-6.407 9.62-5.181 4.088 1.225 6.407 5.532 5.181 9.62-.348 1.164-.271 1.423.545 3.419 1.184 2.895 2.973 7.272 1.043 13.705-1.93 6.435-5.831 9.104-8.412 10.87-1.781 1.218-1.988 1.39-2.336 2.554-.35 1.166-.272 1.425.544 3.422 1.183 2.895 2.972 7.271 1.043 13.704-1.005 3.347-4.075 5.509-7.399 5.509z" fill="#8b818e"/></g></g></svg>