<svg height="512" viewBox="0 0 59 58" width="512" xmlns="http://www.w3.org/2000/svg"><g id="Page-1" fill="none" fill-rule="evenodd"><g id="072---Temperature-Gun" fill-rule="nonzero" transform="translate(-1)"><path id="Shape" d="m23 30v7.0000332l-7.57-.0000332c-.5724632.0038994-1.0913622-.3361021-1.3163444-.8625167-.2249821-.5264146-.112106-1.1364279.2863444-1.5474833 1.557444-1.6072603 2.7810025-3.5071748 3.6-5.59h4c.5522847 0 1 .4477153 1 1z" fill="#e54c3c"/><path id="Shape" d="m31 36v21c0 .5522847-.4477153 1-1 1h-10.89c-.9424667.0200669-1.781046-.595028-2.045-1.5-.1526879-.6024874-.0176233-1.2417213.365734-1.7309471.3833573-.4892257.971746-.7732348 1.593266-.7690529.5277519-.0015759 1.0330822-.2135662 1.4040014-.5889906.3709193-.3754244.5767939-.8832769.5719986-1.4110094v-22c0-.5522847-.4477153-1-1-1h-8c-.5522847 0-1-.4477153-1-1v-4l15-2z" fill="#94a4a4"/><g fill="#2980b9"><path id="Shape" d="m59 7h-3c-.5522847 0-1-.44771525-1-1s.4477153-1 1-1h3c.5522847 0 1 .44771525 1 1s-.4477153 1-1 1z"/><path id="Shape" d="m59 12h-3c-.5522847 0-1-.4477153-1-1s.4477153-1 1-1h3c.5522847 0 1 .4477153 1 1s-.4477153 1-1 1z"/><path id="Shape" d="m59 17h-3c-.5522847 0-1-.4477153-1-1s.4477153-1 1-1h3c.5522847 0 1 .4477153 1 1s-.4477153 1-1 1z"/><path id="Shape" d="m59 22h-3c-.5522847 0-1-.4477153-1-1s.4477153-1 1-1h3c.5522847 0 1 .4477153 1 1s-.4477153 1-1 1z"/><path id="Shape" d="m59 27h-3c-.5522847 0-1-.4477153-1-1s.4477153-1 1-1h3c.5522847 0 1 .4477153 1 1s-.4477153 1-1 1z"/></g><path id="Shape" d="m8.32 22.0000027-3.75-.0000027c-.47221886.0010852-.88083502-.3283095-.98-.79l-2.57-12c-.06352161-.29573499.01022974-.60432978.20060553-.8393856.19037579-.23505583.47691522-.37130986.77939447-.3706144h3.2z" fill="#464f5d"/><path id="Shape" d="m34 10v25c0 .5522847-.4477153 1-1 1h-6c-.5522847 0-1-.4477153-1-1v-11h-16.43c-.46829383-.0005028-.87443646-.3237592-.98-.78l-.27-1.22-3.12-14-.17-.78c-.06424718-.29685598.00892493-.60685186.19913581-.843645.19021089-.23679315.47713806-.37508413.78086419-.376355h23.99c2.209139 0 4 1.790861 4 4z" fill="#ebeff0"/><path id="Shape" d="m38 12v12c0 .5522847-.4477153 1-1 1h-3v-14h3c.5522847 0 1 .4477153 1 1z" fill="#bcc2c6"/><rect id="Rectangle-path" fill="#ff5364" height="4" rx="1" width="4" x="11" y="10"/><path id="Shape" d="m24 11h-5c-.5522847 0-1-.4477153-1-1 0-.55228475.4477153-1 1-1h5c.5522847 0 1 .44771525 1 1 0 .5522847-.4477153 1-1 1z" fill="#bcc2c6"/><path id="Shape" d="m22 15h-3c-.5522847 0-1-.4477153-1-1s.4477153-1 1-1h3c.5522847 0 1 .4477153 1 1s-.4477153 1-1 1z" fill="#bcc2c6"/><path id="Shape" d="m59 38c.0005981 2.4220082-.9750184 4.7420325-2.7063523 6.4357287-1.7313339 1.6936963-4.0722375 2.6180938-6.4936477 2.5642713-4.8916523-.1639059-8.7785555-4.1656495-8.8-9.06.0134012-2.5385568 1.1038497-4.9520828 3-6.64v-25.3c0-3.3137085 2.6862915-6 6-6 3.3116533.00495634 5.9950437 2.68834666 6 6v25.3c1.9109857 1.7023857 3.0027718 4.1407079 3 6.7z" fill="#9ec8d2"/><path id="Shape" d="m54 38c-.0007046 1.2339839-.5700696 2.398783-1.5433493 3.1573629s-2.2418501 1.0262785-3.4386507.7256371c-1.4251063-.3456013-2.5415786-1.4520638-2.9-2.874-.4047059-1.5695396.1777853-3.2281587 1.475-4.2.2440867-.1711672.3925077-.4479725.4-.746v-24.951c-.020672-1.06388037.7667705-1.97097264 1.823-2.1.5585825-.04794633 1.1118387.13934334 1.5264356.51673276.4145968.37738941.6529309.91064987.6575644 1.47126724v25.08c.00739.2851647.1504227.5496824.385.712 1.0181523.7514114 1.6178295 1.9425968 1.615 3.208z" fill="#e54c3c"/></g></g></svg>