<svg height="503pt" viewBox="-107 0 503 503.84" width="503pt" xmlns="http://www.w3.org/2000/svg"><path d="m184.546875 48h-48.117187c-4.425782 0-8-3.574219-8-8s3.574218-8 8-8h48.117187c4.425781 0 8 3.574219 8 8s-3.582031 8-8 8zm0 0" fill="#ccd1d9"/><path d="m160.421875 16h.078125v24h-32v-24h-.078125c0-8.800781 7.109375-16 16-16 8.796875 0 16 7.199219 16 16zm0 0" fill="#656d78"/><path d="m248.5 95.921875 27.441406 226.71875h-.082031c-15.359375 58.230469-68.40625 101.113281-131.4375 101.113281-62.96875 0-115.769531-42.640625-131.449219-100.546875v-.09375l27.527344-227.191406c1.121094-9.363281 7.121094-16.082031 16-16.082031h176c8.871094 0 14.871094 6.71875 16 16.082031zm-88.078125 40c0-8.890625-7.203125-16-16-16-8.890625 0-16 7.109375-16 16 0 8.796875 7.109375 16 16 16 8.796875 0 16-7.203125 16-16zm0 0" fill="#ccd1d9"/><path d="m128.5 40h32v39.839844h-32zm0 0" fill="#656d78"/><g fill="#e6e9ed"><path d="m144.421875 119.921875c8.796875 0 16 7.109375 16 16 0 8.796875-7.203125 16-16 16-8.890625 0-16-7.203125-16-16 0-8.890625 7.109375-16 16-16zm0 0"/><path d="m144.421875 423.753906c63.03125 0 116.078125-42.875 131.4375-101.113281h.082031l4.480469 37.199219c0 75.113281-60.96875 136-136 136-75.128906 0-136-60.886719-136-136h.15625l4.402344-36.640625c15.671875 57.90625 68.472656 100.554687 131.441406 100.554687zm0 0"/><path d="m144.421875 503.839844c-79.402344 0-144-64.59375-144-144 0-4.425782 3.574219-8 8-8 4.421875 0 8 3.574218 8 8 0 70.574218 57.421875 128 128 128 70.574219 0 128-57.425782 128-128 0-4.425782 3.574219-8 8-8 4.421875 0 8 3.574218 8 8 0 79.40625-64.601563 144-144 144zm0 0"/><path d="m144.421875 431.777344c-65.074219 0-122.273437-43.839844-139.105469-106.625-1.152344-4.265625 1.390625-8.65625 5.65625-9.800782 4.269532-1.160156 8.648438 1.375 9.800782 5.65625 14.957031 55.800782 65.804687 94.769532 123.648437 94.769532 58.070313 0 108.964844-39.160156 123.765625-95.234375 1.128906-4.277344 5.558594-6.800781 9.777344-5.6875 4.269531 1.128906 6.824218 5.503906 5.695312 9.769531-16.65625 63.09375-73.914062 107.152344-139.238281 107.152344zm0 0"/><path d="m280.410156 367.839844c-3.988281 0-7.445312-2.96875-7.933594-7.03125l-31.886718-263.984375c-.523438-4.390625 2.597656-8.375 6.980468-8.902344 4.457032-.488281 8.378907 2.589844 8.90625 6.980469l31.886719 263.984375c.519531 4.394531-2.597656 8.378906-6.984375 8.90625-.328125.03125-.648437.046875-.96875.046875zm0 0"/><path d="m8.628906 367.839844c-.320312 0-.640625-.015625-.96875-.046875-4.382812-.527344-7.503906-4.511719-6.984375-8.90625l31.886719-263.984375c.53125-4.390625 4.503906-7.488282 8.90625-6.980469 4.382812.527344 7.503906 4.511719 6.984375 8.902344l-31.890625 263.984375c-.488281 4.0625-3.941406 7.03125-7.933594 7.03125zm0 0"/><path d="m232.515625 87.855469h-175.984375c-4.421875 0-8-3.574219-8-8 0-4.421875 3.578125-8 8-8h175.984375c4.425781 0 8 3.578125 8 8 0 4.425781-3.582031 8-8 8zm0 0"/><path d="m40.523438 103.871094c-.320313 0-.640626-.015625-.96875-.0625-4.382813-.527344-7.511719-4.511719-6.984376-8.90625 1.671876-13.78125 11.296876-23.046875 23.960938-23.046875 4.425781 0 8 3.578125 8 8 0 4.425781-3.574219 8-8 8-6.304688 0-7.75 6.28125-8.070312 8.96875-.496094 4.0625-3.945313 7.046875-7.9375 7.046875zm0 0"/><path d="m248.546875 103.871094c-3.992187 0-7.445313-2.984375-7.933594-7.046875-.320312-2.6875-1.769531-8.96875-8.074219-8.96875-4.421874 0-8-3.574219-8-8 0-4.421875 3.578126-8 8-8 12.664063 0 22.289063 9.265625 23.960938 23.046875.527344 4.394531-2.601562 8.378906-6.984375 8.90625-.328125.046875-.648437.0625-.96875.0625zm0 0"/></g><path d="m144.789062 407.855469c-4.425781 0-8.042968-3.574219-8.042968-8 0-4.421875 3.539062-8 7.953125-8h.089843c4.414063 0 8 3.578125 8 8 0 4.425781-3.585937 8-8 8zm0 0" fill="#aab2bd"/><path d="m160.789062 383.855469c-4.425781 0-8.042968-3.574219-8.042968-8 0-4.421875 3.539062-8 7.953125-8h.089843c4.414063 0 8 3.578125 8 8 0 4.425781-3.585937 8-8 8zm0 0" fill="#aab2bd"/><path d="m128.757812 383.855469c-4.425781 0-8.042968-3.574219-8.042968-8 0-4.421875 3.539062-8 7.953125-8h.089843c4.414063 0 8 3.578125 8 8 0 4.425781-3.585937 8-8 8zm0 0" fill="#aab2bd"/><path d="m128.421875 32.078125h32v16h-32zm0 0" fill="#545c66"/></svg>